<mxfile host="Electron" modified="2024-06-24T08:39:41.109Z" agent="Mozilla/5.0 (X11; Linux x86_64) AppleWebKit/537.36 (KHTML, like Gecko) draw.io/24.0.4 Chrome/120.0.6099.291 Electron/28.3.1 Safari/537.36" etag="cFevS9IJNw2VKJMxp3Zz" version="24.0.4" type="device">
  <diagram name="Page-1" id="KnURBy5V8UIvKAxYtK1H">
    <mxGraphModel dx="2019" dy="630" grid="1" gridSize="10" guides="1" tooltips="1" connect="1" arrows="1" fold="1" page="1" pageScale="1" pageWidth="850" pageHeight="1100" math="0" shadow="0">
      <root>
        <mxCell id="0" />
        <mxCell id="1" parent="0" />
        <mxCell id="wcWnsvDu_IG7XJHHJCkO-1" value="" style="swimlane;startSize=0;" vertex="1" parent="1">
          <mxGeometry x="160" y="120" width="360" height="40" as="geometry" />
        </mxCell>
        <mxCell id="wcWnsvDu_IG7XJHHJCkO-8" value="Job 1" style="rounded=1;whiteSpace=wrap;html=1;" vertex="1" parent="wcWnsvDu_IG7XJHHJCkO-1">
          <mxGeometry x="10" y="5" width="60" height="30" as="geometry" />
        </mxCell>
        <mxCell id="wcWnsvDu_IG7XJHHJCkO-9" value="Job 2" style="rounded=1;whiteSpace=wrap;html=1;" vertex="1" parent="wcWnsvDu_IG7XJHHJCkO-1">
          <mxGeometry x="80" y="5" width="60" height="30" as="geometry" />
        </mxCell>
        <mxCell id="wcWnsvDu_IG7XJHHJCkO-3" value="" style="swimlane;startSize=0;" vertex="1" parent="1">
          <mxGeometry x="240" y="240" width="190" height="200" as="geometry" />
        </mxCell>
        <mxCell id="wcWnsvDu_IG7XJHHJCkO-5" value="" style="shape=note;whiteSpace=wrap;html=1;backgroundOutline=1;darkOpacity=0.05;" vertex="1" parent="wcWnsvDu_IG7XJHHJCkO-3">
          <mxGeometry x="10" y="10" width="50" height="70" as="geometry" />
        </mxCell>
        <mxCell id="wcWnsvDu_IG7XJHHJCkO-6" value="" style="shape=note;whiteSpace=wrap;html=1;backgroundOutline=1;darkOpacity=0.05;" vertex="1" parent="wcWnsvDu_IG7XJHHJCkO-3">
          <mxGeometry x="70" y="10" width="50" height="70" as="geometry" />
        </mxCell>
        <mxCell id="wcWnsvDu_IG7XJHHJCkO-4" value="Control" style="text;html=1;align=left;verticalAlign=middle;whiteSpace=wrap;rounded=0;" vertex="1" parent="1">
          <mxGeometry x="315" y="220" width="40" height="30" as="geometry" />
        </mxCell>
        <mxCell id="wcWnsvDu_IG7XJHHJCkO-11" style="edgeStyle=orthogonalEdgeStyle;rounded=0;orthogonalLoop=1;jettySize=auto;html=1;entryX=0;entryY=0.5;entryDx=0;entryDy=0;entryPerimeter=0;strokeColor=#bdbdbd;" edge="1" parent="1" source="wcWnsvDu_IG7XJHHJCkO-8" target="wcWnsvDu_IG7XJHHJCkO-5">
          <mxGeometry relative="1" as="geometry">
            <Array as="points">
              <mxPoint x="200" y="285" />
            </Array>
          </mxGeometry>
        </mxCell>
        <mxCell id="wcWnsvDu_IG7XJHHJCkO-14" value="" style="shape=flexArrow;endArrow=classic;html=1;rounded=0;entryX=0;entryY=0.5;entryDx=0;entryDy=0;" edge="1" parent="1" target="wcWnsvDu_IG7XJHHJCkO-1">
          <mxGeometry width="50" height="50" relative="1" as="geometry">
            <mxPoint x="110" y="140" as="sourcePoint" />
            <mxPoint x="110" y="110" as="targetPoint" />
          </mxGeometry>
        </mxCell>
        <mxCell id="wcWnsvDu_IG7XJHHJCkO-15" value="" style="shape=flexArrow;endArrow=classic;html=1;rounded=0;entryX=0;entryY=0.5;entryDx=0;entryDy=0;" edge="1" parent="1">
          <mxGeometry width="50" height="50" relative="1" as="geometry">
            <mxPoint x="520" y="139.67" as="sourcePoint" />
            <mxPoint x="570" y="139.67" as="targetPoint" />
          </mxGeometry>
        </mxCell>
        <mxCell id="wcWnsvDu_IG7XJHHJCkO-26" style="edgeStyle=orthogonalEdgeStyle;rounded=0;orthogonalLoop=1;jettySize=auto;html=1;exitX=0.5;exitY=1;exitDx=0;exitDy=0;entryX=1;entryY=0.5;entryDx=0;entryDy=0;" edge="1" parent="1" source="wcWnsvDu_IG7XJHHJCkO-16" target="wcWnsvDu_IG7XJHHJCkO-3">
          <mxGeometry relative="1" as="geometry" />
        </mxCell>
        <mxCell id="wcWnsvDu_IG7XJHHJCkO-16" value="Worker" style="rounded=0;whiteSpace=wrap;html=1;" vertex="1" parent="1">
          <mxGeometry x="570" y="110" width="120" height="60" as="geometry" />
        </mxCell>
        <mxCell id="wcWnsvDu_IG7XJHHJCkO-23" style="edgeStyle=orthogonalEdgeStyle;rounded=0;orthogonalLoop=1;jettySize=auto;html=1;entryX=0;entryY=0.5;entryDx=0;entryDy=0;" edge="1" parent="1" source="wcWnsvDu_IG7XJHHJCkO-22" target="wcWnsvDu_IG7XJHHJCkO-3">
          <mxGeometry relative="1" as="geometry">
            <Array as="points">
              <mxPoint x="50" y="340" />
            </Array>
          </mxGeometry>
        </mxCell>
        <mxCell id="wcWnsvDu_IG7XJHHJCkO-22" value="SpringBoot" style="rounded=0;whiteSpace=wrap;html=1;" vertex="1" parent="1">
          <mxGeometry x="-10" y="110" width="120" height="60" as="geometry" />
        </mxCell>
        <mxCell id="wcWnsvDu_IG7XJHHJCkO-25" value="Rabbit MessageQueue" style="text;html=1;align=center;verticalAlign=middle;whiteSpace=wrap;rounded=0;" vertex="1" parent="1">
          <mxGeometry x="265" y="100" width="150" height="30" as="geometry" />
        </mxCell>
        <mxCell id="wcWnsvDu_IG7XJHHJCkO-28" style="edgeStyle=orthogonalEdgeStyle;rounded=0;orthogonalLoop=1;jettySize=auto;html=1;exitX=1;exitY=0.5;exitDx=0;exitDy=0;strokeColor=#bdbdbd;" edge="1" parent="1" source="wcWnsvDu_IG7XJHHJCkO-9" target="wcWnsvDu_IG7XJHHJCkO-6">
          <mxGeometry relative="1" as="geometry" />
        </mxCell>
      </root>
    </mxGraphModel>
  </diagram>
</mxfile>
